ply
format ascii 1.0
element vertex 1286
property float x
property float y
property float z
property uchar diffuse_red
property uchar diffuse_green
property uchar diffuse_blue
end_header
-27.311908 18.058915 48.635211 0 0 0
-10.303910 3.262662 19.179609 0 0 0
-7.050787 -3.830224 13.137547 0 0 0
-27.729985 10.150784 52.627781 0 0 0
-39.561179 -7.257078 81.977136 0 0 0
-54.146289 -20.606898 128.187289 0 0 0
-4.683695 3.443984 12.006124 0 0 0
-4.991430 4.009522 13.280639 0 0 0
-31.646517 -29.701997 88.531898 0 0 0
-27.807153 -16.156987 78.843012 0 0 0
-9.718924 8.616784 27.542584 0 0 0
-39.149272 -39.258859 111.726917 0 0 0
-8.077576 7.351389 23.329530 0 0 0
-7.375741 6.805944 21.528328 0 0 0
-20.291433 12.970293 61.589001 0 0 0
-12.268974 0.895149 39.459219 0 0 0
-1.600945 0.794379 5.341869 0 0 0
-4.768115 3.441786 16.342655 0 0 0
-4.664480 2.859993 16.074467 0 0 0
-4.598672 3.435931 16.104501 0 0 0
-4.520497 3.400966 16.083017 0 0 0
-4.469026 3.446142 15.955100 0 0 0
-4.379376 2.967147 15.771543 0 0 0
-22.722438 -14.742257 82.508370 0 0 0
-4.384716 2.900261 15.979032 0 0 0
-4.447524 2.891627 16.347776 0 0 0
-3.959353 3.534057 15.500186 0 0 0
-4.449994 2.956716 17.493811 0 0 0
-3.821184 3.028160 15.152711 0 0 0
-20.826732 -14.162468 83.531160 0 0 0
-27.378605 27.354592 110.324710 0 0 0
-27.378605 27.354592 110.324710 0 0 0
-3.796483 2.864763 15.939374 0 0 0
-3.487394 3.387323 14.954303 0 0 0
-3.487394 3.387323 14.954303 0 0 0
-17.474973 17.842818 78.371335 0 0 0
-6.143484 7.069263 27.790783 0 0 0
-3.163963 3.077769 14.478182 0 0 0
-3.074529 3.133967 14.285522 0 0 0
-3.385009 2.587098 16.121024 0 0 0
-2.919431 3.616540 14.243130 0 0 0
-3.421353 2.529153 16.973593 0 0 0
-3.435529 2.487950 17.091940 0 0 0
-3.056354 2.612188 15.882928 0 0 0
-3.272109 2.508157 17.220666 0 0 0
-2.664426 3.054066 14.212219 0 0 0
-1.473425 0.674473 7.980491 0 0 0
-2.517586 3.110825 13.671387 0 0 0
-2.546116 3.074789 13.939501 0 0 0
-0.309280 -0.160417 2.014157 0 0 0
-0.928708 0.455027 5.280434 0 0 0
-2.513260 3.023716 14.280712 0 0 0
-2.513260 3.023716 14.280712 0 0 0
-2.348046 3.586377 13.682757 0 0 0
-2.306830 3.028625 14.190118 0 0 0
-2.306830 3.028625 14.190118 0 0 0
-2.135456 3.231946 13.321268 0 0 0
-2.751158 2.105884 17.540725 0 0 0
-2.085963 3.159356 13.346926 0 0 0
-2.046630 3.213331 13.237270 0 0 0
-2.068024 3.472027 13.378062 0 0 0
-1.953503 3.575405 13.164355 0 0 0
-1.916744 3.702008 13.099780 0 0 0
-2.442475 1.891636 17.653633 0 0 0
-1.728637 3.402988 12.914012 0 0 0
-1.874705 2.465117 14.051796 0 0 0
-2.297352 1.962779 17.359222 0 0 0
-1.836907 2.514014 14.057960 0 0 0
-1.836907 2.514014 14.057960 0 0 0
-2.227860 2.003457 17.305910 0 0 0
-1.728259 2.635250 14.049086 0 0 0
-2.125640 1.972083 17.449830 0 0 0
-1.589315 3.549263 13.178362 0 0 0
-1.682729 2.465337 14.070060 0 0 0
-1.677863 2.525123 14.052522 0 0 0
-1.549730 3.408150 13.165265 0 0 0
-1.523027 3.563533 13.218651 0 0 0
-1.601061 2.467787 14.036092 0 0 0
-1.891448 1.686805 17.340526 0 0 0
-2.282372 5.948852 20.912156 0 0 0
-1.815024 1.789643 17.136422 0 0 0
-1.485846 2.612835 14.029787 0 0 0
-1.423118 3.197770 13.432127 0 0 0
-1.479210 3.105914 14.101433 0 0 0
-1.690126 1.804069 17.184396 0 0 0
-1.690126 1.804069 17.184396 0 0 0
-1.303892 3.572006 13.385624 0 0 0
-1.279577 3.485354 13.422206 0 0 0
-1.737554 1.836817 18.326363 0 0 0
-1.301580 2.791510 14.019506 0 0 0
-1.186952 3.373155 13.457910 0 0 0
-1.187404 3.556242 13.498981 0 0 0
-1.421791 1.961271 16.820893 0 0 0
-1.143713 3.450280 13.514101 0 0 0
-1.143713 3.450280 13.514101 0 0 0
-1.381302 2.092679 16.493216 0 0 0
-1.141928 3.405975 13.547127 0 0 0
-1.141928 3.405975 13.547127 0 0 0
-1.118848 3.800187 13.523795 0 0 0
-1.122878 3.090589 14.300038 0 0 0
-1.237448 -0.557894 16.009899 0 0 0
-1.109144 3.033474 14.491493 0 0 0
-1.181428 0.272140 15.867656 0 0 0
-0.973762 3.332173 13.775164 0 0 0
-0.254268 -0.526784 5.121416 0 0 0
-1.069862 2.470529 15.967151 0 0 0
-1.261370 1.684189 18.950383 0 0 0
-1.187250 -1.913483 18.495705 0 0 0
-0.903415 3.097273 14.242657 0 0 0
-0.974838 0.632164 15.872789 0 0 0
-1.058478 1.946850 17.166671 0 0 0
-1.000498 2.763899 16.234092 0 0 0
-0.979668 2.854025 15.849337 0 0 0
-0.947547 -0.117412 15.580974 0 0 0
-0.947547 -0.117412 15.580974 0 0 0
-1.043501 2.002561 17.143918 0 0 0
-0.976740 2.478973 16.009450 0 0 0
-0.930393 -0.843365 15.863671 0 0 0
-0.937645 1.953002 16.966657 0 0 0
-0.789998 3.013903 14.409904 0 0 0
-0.848973 0.510789 15.635448 0 0 0
-0.874055 0.989116 16.107872 0 0 0
-0.781392 3.003541 14.556820 0 0 0
-0.991189 -1.767875 18.446241 0 0 0
-0.918903 2.095070 17.207242 0 0 0
-0.927243 -1.696480 18.307624 0 0 0
-0.779364 0.004191 15.409587 0 0 0
-0.783803 2.862481 15.823027 0 0 0
-0.761910 2.815146 15.826842 0 0 0
-0.755446 1.147764 16.280419 0 0 0
-0.802815 -1.688777 18.258058 0 0 0
-0.581322 0.171840 15.325525 0 0 0
-0.535933 0.315666 15.327104 0 0 0
-0.510256 3.079027 14.510757 0 0 0
-0.509498 -0.092058 15.191613 0 0 0
-0.486210 -0.676778 15.340485 0 0 0
-0.402146 3.303760 14.294880 0 0 0
-0.399775 0.841196 15.591661 0 0 0
-0.403266 2.588585 15.878138 0 0 0
-0.380925 0.783810 15.506850 0 0 0
-0.363165 0.064044 15.171567 0 0 0
-0.357204 -0.254863 15.145690 0 0 0
-0.357204 -0.254863 15.145690 0 0 0
-0.342259 3.730177 14.570122 0 0 0
-0.515201 -0.948638 23.741458 0 0 0
-0.390627 -0.204666 17.859171 0 0 0
-0.311096 -0.213004 15.142643 0 0 0
-0.314706 1.111438 15.787760 0 0 0
-0.311802 1.554589 17.322895 0 0 0
-0.277066 -1.315163 15.870162 0 0 0
-0.229423 0.802672 15.487381 0 0 0
-0.201085 0.510864 15.274442 0 0 0
-0.201085 0.510864 15.274442 0 0 0
-0.083366 1.345294 6.620562 0 0 0
-0.179118 1.234739 15.940217 0 0 0
-0.136910 2.698712 15.916497 0 0 0
-0.103391 3.324593 14.810025 0 0 0
-0.102933 3.455970 14.615499 0 0 0
-0.099254 2.159931 16.979940 0 0 0
-0.098391 2.653421 15.914672 0 0 0
-0.079302 0.065047 15.126199 0 0 0
-0.062808 3.411955 14.629039 0 0 0
-0.062808 3.411955 14.629039 0 0 0
-0.033313 -0.078630 15.039556 0 0 0
-0.033313 -0.078630 15.039556 0 0 0
-0.004441 -0.005557 15.034457 0 0 0
0.002273 2.317531 16.946697 0 0 0
0.023128 0.987690 15.469536 0 0 0
0.019427 3.335479 14.724429 0 0 0
0.019427 3.335479 14.724429 0 0 0
0.061202 1.567576 16.509549 0 0 0
0.077836 -1.613685 16.831397 0 0 0
0.072345 3.774964 14.806531 0 0 0
0.101337 -0.306181 15.071656 0 0 0
0.101337 -0.306181 15.071656 0 0 0
0.108448 3.453685 14.832507 0 0 0
0.116915 0.921325 15.549155 0 0 0
0.132514 2.578656 16.562783 0 0 0
0.124234 0.476560 15.211488 0 0 0
0.228133 3.664361 15.193924 0 0 0
0.291351 2.534628 17.050948 0 0 0
0.298268 -1.745932 16.941469 0 0 0
0.272145 3.374222 15.095698 0 0 0
0.272145 3.374222 15.095698 0 0 0
0.272145 3.374222 15.095698 0 0 0
0.285338 -1.165232 15.604807 0 0 0
0.312242 -0.514812 15.150095 0 0 0
0.329658 0.064456 15.103959 0 0 0
0.335481 0.425670 15.263257 0 0 0
0.460479 2.735295 16.927784 0 0 0
0.416658 -0.292404 15.112667 0 0 0
0.500085 -1.349415 16.224684 0 0 0
0.490135 0.028371 15.160987 0 0 0
0.490135 0.028371 15.160987 0 0 0
0.567523 2.934023 16.823390 0 0 0
0.541842 0.736186 15.426601 0 0 0
0.600701 2.021717 16.674103 0 0 0
0.555044 0.223993 15.195839 0 0 0
0.597410 1.327308 16.327690 0 0 0
0.647403 2.721650 16.795643 0 0 0
0.613693 -1.109487 15.686733 0 0 0
0.600699 -0.343981 15.174904 0 0 0
0.361080 0.728229 8.469296 0 0 0
0.712602 -1.882066 16.474376 0 0 0
0.717095 1.262278 16.434472 0 0 0
0.703394 0.738268 15.496328 0 0 0
0.749198 2.403910 16.496768 0 0 0
0.760252 1.197188 16.269202 0 0 0
0.737450 0.569035 15.436988 0 0 0
0.761860 3.117018 15.770178 0 0 0
0.762039 0.452854 15.367703 0 0 0
0.762039 0.452854 15.367703 0 0 0
0.830225 2.424203 16.658998 0 0 0
0.789545 0.080416 15.252615 0 0 0
0.808042 -0.596147 15.384003 0 0 0
0.888726 2.895058 16.521532 0 0 0
0.838907 -0.338446 15.298730 0 0 0
0.894607 2.798734 16.379343 0 0 0
0.874345 3.130647 15.769283 0 0 0
0.914584 -0.236192 15.429949 0 0 0
1.023076 -1.157087 16.223216 0 0 0
1.023076 -1.157087 16.223216 0 0 0
1.019232 0.452022 15.584891 0 0 0
1.019232 0.452022 15.584891 0 0 0
1.039454 3.440643 15.891688 0 0 0
1.102639 -0.761504 15.913328 0 0 0
1.072803 0.098563 15.511376 0 0 0
1.072803 0.098563 15.511376 0 0 0
1.072803 0.098563 15.511376 0 0 0
1.084194 0.432616 15.661929 0 0 0
1.074463 -0.278983 15.388414 0 0 0
1.122882 3.392350 15.948677 0 0 0
1.116554 0.150696 15.553939 0 0 0
1.158847 2.044024 16.172237 0 0 0
1.184258 0.367286 15.777862 0 0 0
1.337596 1.714758 16.034682 0 0 0
1.350910 2.407309 16.135455 0 0 0
1.369109 2.014881 16.100567 0 0 0
1.383302 1.847920 16.090899 0 0 0
1.417626 1.447116 16.042976 0 0 0
1.424113 -1.559121 15.668161 0 0 0
1.452444 0.200968 15.962351 0 0 0
1.066820 1.218116 11.005796 0 0 0
1.459645 -1.769654 15.585646 0 0 0
1.459645 -1.769654 15.585646 0 0 0
1.457696 -1.617677 15.523999 0 0 0
1.609008 2.778131 16.519989 0 0 0
1.610717 2.829905 16.592476 0 0 0
1.559385 -0.378229 15.787545 0 0 0
1.563729 -0.557268 15.658531 0 0 0
1.685353 2.539881 16.506783 0 0 0
1.617744 -1.111178 15.665377 0 0 0
1.646482 -0.796293 15.641343 0 0 0
1.874801 -1.428587 15.883855 0 0 0
1.918573 -0.551997 16.116018 0 0 0
1.932368 -1.691212 15.904927 0 0 0
2.038291 -1.235965 16.073746 0 0 0
0.217028 0.166171 1.567962 0 0 0
2.162265 1.615910 8.690023 0 0 0
0.498831 -0.259440 1.362479 0 0 0
0.490391 -0.127460 0.954623 0 0 0
3.222148 1.013345 5.667968 0 0 0
-39.118015 -5.927871 71.710543 0 0 0
-22.970741 8.688797 43.041130 0 0 0
-32.374445 -3.684537 60.799919 0 0 0
-9.985695 3.317836 18.817401 0 0 0
-94.854688 -41.529892 186.366666 0 0 0
-33.689505 -2.922554 66.729531 0 0 0
-31.809500 -3.375342 68.131151 0 0 0
-36.444806 -6.160595 78.239292 0 0 0
-34.074100 -25.844682 73.917536 0 0 0
-35.733035 -4.712049 78.116045 0 0 0
-31.737850 -3.925569 70.893414 0 0 0
-31.105943 -3.510969 69.518687 0 0 0
-6.787006 3.883607 15.246217 0 0 0
-29.826758 -3.478232 69.104262 0 0 0
-45.740064 -10.077128 106.171809 0 0 0
-5.393842 3.634404 13.121337 0 0 0
-6.511398 -0.496575 15.988608 0 0 0
-5.034056 3.919439 13.203841 0 0 0
-30.945336 -8.101911 85.821452 0 0 0
-27.701935 -15.621720 77.792003 0 0 0
-30.937481 -31.599257 87.099019 0 0 0
-28.158753 -15.411543 79.209249 0 0 0
-29.586563 -30.732721 83.440147 0 0 0
-37.487951 -38.216559 107.135944 0 0 0
-7.988595 7.112831 22.801005 0 0 0
-1.798504 0.165640 5.198651 0 0 0
-1.377326 0.174938 4.369197 0 0 0
-3.465187 3.807284 11.158680 0 0 0
-15.227026 1.106011 49.850404 0 0 0
-4.795889 2.872233 16.514006 0 0 0
-16.256364 1.167947 57.776941 0 0 0
-12.119166 0.879938 43.937846 0 0 0
-4.424411 2.880394 16.278559 0 0 0
-4.364168 2.843479 16.748341 0 0 0
-3.962902 3.488978 15.560520 0 0 0
-21.262697 -10.725590 88.852651 0 0 0
-3.762927 2.898810 15.795893 0 0 0
-3.635852 2.868765 15.888502 0 0 0
-3.635852 2.868765 15.888502 0 0 0
-3.401987 2.971064 15.151082 0 0 0
-3.508857 2.921499 15.983756 0 0 0
-3.156812 3.507243 14.467235 0 0 0
-5.162166 0.445486 24.143650 0 0 0
-2.934161 3.398201 14.223452 0 0 0
-2.730525 3.289788 14.029247 0 0 0
-0.386376 -0.123217 2.368547 0 0 0
-2.840656 2.675665 15.756967 0 0 0
-2.750217 2.688841 15.848817 0 0 0
-2.455206 3.046896 14.289621 0 0 0
-2.245701 3.355793 13.506188 0 0 0
-10.809371 -0.836491 66.159961 0 0 0
-2.121058 3.540387 13.356939 0 0 0
-2.777335 2.479300 17.570675 0 0 0
-2.763116 2.333017 17.558692 0 0 0
-2.752807 1.936447 17.622389 0 0 0
-2.052578 3.780168 13.234483 0 0 0
-2.701721 2.228708 17.556885 0 0 0
-1.907833 3.218593 13.006682 0 0 0
-2.557766 2.202504 17.578087 0 0 0
-2.055982 3.097441 14.070967 0 0 0
-1.846244 3.343845 12.955901 0 0 0
-1.812440 3.297057 12.952957 0 0 0
-1.801144 3.460274 12.900819 0 0 0
-1.887984 2.660343 14.021108 0 0 0
-1.842325 3.065457 14.065672 0 0 0
-1.730815 3.206622 13.252803 0 0 0
-1.683587 3.479600 12.960498 0 0 0
-8.545464 -22.616841 67.984104 0 0 0
-1.768187 2.407184 14.029188 0 0 0
-1.697141 2.468881 13.533724 0 0 0
-1.632843 3.529027 13.045003 0 0 0
-2.123104 1.818688 17.320087 0 0 0
-1.615870 3.145896 13.603474 0 0 0
-2.033309 1.970507 17.402558 0 0 0
-1.627489 2.549704 14.049400 0 0 0
-1.627489 2.549704 14.049400 0 0 0
-1.591408 3.081555 14.111567 0 0 0
-1.543648 2.324672 14.135798 0 0 0
-1.873269 2.182792 17.236404 0 0 0
-1.419258 3.335791 13.292502 0 0 0
-1.816409 1.746454 17.287515 0 0 0
-1.250815 3.406966 13.426986 0 0 0
-1.685632 1.899944 18.879174 0 0 0
-1.229130 3.084479 14.163134 0 0 0
-1.193174 2.841154 14.116401 0 0 0
-1.123200 3.748063 13.753722 0 0 0
-1.377388 1.388762 19.072771 0 0 0
-0.970757 3.537406 13.802810 0 0 0
-1.088797 2.406512 16.100188 0 0 0
-0.912837 3.056536 14.310319 0 0 0
-0.864836 3.439587 13.863748 0 0 0
-0.871988 -0.674114 15.685122 0 0 0
-0.868057 0.098603 15.544716 0 0 0
-0.876153 2.840016 15.923503 0 0 0
-0.841922 0.013606 15.448868 0 0 0
-0.911801 1.138576 16.655353 0 0 0
-0.831035 -0.746333 15.660820 0 0 0
-0.970401 -1.549107 18.381747 0 0 0
-0.693206 0.391275 15.483859 0 0 0
-3.628204 -10.051800 82.651833 0 0 0
-0.808185 1.556952 18.432720 0 0 0
-0.717298 2.004858 16.879588 0 0 0
-0.663354 -1.139843 15.873381 0 0 0
-0.611226 0.218626 15.323200 0 0 0
-0.603025 1.801649 18.135116 0 0 0
-0.383298 2.592092 15.434206 0 0 0
-0.317088 3.111612 14.793284 0 0 0
-0.259851 2.967107 14.954801 0 0 0
-0.268199 2.762200 15.574458 0 0 0
-0.207417 3.516082 14.672615 0 0 0
-0.223386 1.755023 16.868266 0 0 0
-0.187951 3.014295 15.225895 0 0 0
-0.166763 -1.084552 15.533291 0 0 0
-0.189800 2.094187 17.004359 0 0 0
-0.183681 2.336772 16.728502 0 0 0
-0.135017 3.573112 14.659041 0 0 0
-0.092835 1.683699 16.625601 0 0 0
-0.084858 2.551185 15.860064 0 0 0
-0.077835 2.937935 15.450955 0 0 0
-0.074809 3.224924 14.614948 0 0 0
-0.074809 3.224924 14.614948 0 0 0
-0.056962 1.621532 16.574908 0 0 0
-0.020731 -1.886077 16.605628 0 0 0
-0.016459 -1.607128 16.810289 0 0 0
0.002545 -0.312965 15.119764 0 0 0
0.006135 -0.202180 15.067736 0 0 0
0.006135 -0.202180 15.067736 0 0 0
-0.001496 1.155335 15.724892 0 0 0
0.035065 -0.619258 15.140776 0 0 0
0.057130 -0.266940 15.106585 0 0 0
0.057130 -0.266940 15.106585 0 0 0
0.087163 0.123899 15.104927 0 0 0
0.087163 0.123899 15.104927 0 0 0
0.090266 0.690285 15.346630 0 0 0
0.108124 -1.217688 15.698476 0 0 0
0.108124 -1.217688 15.698476 0 0 0
0.143973 0.058994 15.109438 0 0 0
0.141226 0.762678 15.407067 0 0 0
0.189025 3.323886 14.981022 0 0 0
0.292477 -1.394423 16.097582 0 0 0
0.337881 1.687999 16.263908 0 0 0
0.368610 -1.477658 16.542691 0 0 0
0.339251 -0.934327 15.370028 0 0 0
0.339251 -0.934327 15.370028 0 0 0
0.412240 -1.408829 16.556880 0 0 0
0.458077 -1.914441 16.782175 0 0 0
0.472617 2.218421 16.993408 0 0 0
0.436231 0.729890 15.393267 0 0 0
0.452597 -1.228660 15.798705 0 0 0
0.445390 0.071915 15.129895 0 0 0
0.500630 2.314037 17.060589 0 0 0
0.456935 0.449114 15.236820 0 0 0
0.456935 0.449114 15.236820 0 0 0
0.476791 -0.774130 15.302920 0 0 0
0.541239 0.078087 15.199353 0 0 0
0.596570 0.690141 15.414196 0 0 0
0.601778 0.029290 15.167837 0 0 0
0.601778 0.029290 15.167837 0 0 0
0.607295 0.392133 15.254254 0 0 0
0.672648 0.636317 15.399996 0 0 0
0.732148 0.034620 15.247694 0 0 0
0.813346 -1.113492 15.748608 0 0 0
0.797148 -0.697949 15.407867 0 0 0
0.864958 2.579250 16.565039 0 0 0
0.171254 -0.448937 2.469537 0 0 0
0.861060 1.073428 16.213902 0 0 0
0.845549 0.827338 15.771854 0 0 0
0.939159 -0.968458 15.924592 0 0 0
0.986460 -1.094922 16.236255 0 0 0
1.004410 1.537925 16.358370 0 0 0
1.079961 3.236381 15.964604 0 0 0
1.122220 -1.103179 16.169723 0 0 0
1.130851 -0.082747 15.581257 0 0 0
1.167617 1.848805 16.202482 0 0 0
1.266749 -1.097810 15.887137 0 0 0
1.292131 2.366084 16.099452 0 0 0
1.317266 3.218875 16.212144 0 0 0
1.355249 1.001869 15.966804 0 0 0
1.394203 -0.456164 15.786179 0 0 0
0.162520 -0.147229 1.358723 0 0 0
1.454652 3.167402 16.434938 0 0 0
1.442013 -0.383940 15.776924 0 0 0
1.440106 -0.029231 15.771517 0 0 0
1.496788 0.597055 15.963804 0 0 0
1.483819 -1.825739 15.565763 0 0 0
1.576448 1.646446 16.316113 0 0 0
1.643739 3.118502 16.621575 0 0 0
1.546611 -1.336773 15.548890 0 0 0
1.695470 3.807822 16.762488 0 0 0
1.588624 -0.819398 15.696468 0 0 0
1.577907 -1.851073 15.480782 0 0 0
1.594922 -0.907364 15.650899 0 0 0
1.634585 -1.247135 15.616566 0 0 0
1.705716 0.278002 16.166148 0 0 0
1.672208 -0.905922 15.786654 0 0 0
1.669834 -1.016101 15.696637 0 0 0
1.731376 -0.038879 16.103452 0 0 0
1.768612 3.707894 16.438013 0 0 0
1.786944 -0.842287 15.877629 0 0 0
2.218537 3.718158 17.140348 0 0 0
5.313631 2.811074 34.701830 0 0 0
0.985418 1.143080 5.551701 0 0 0
8.014694 2.927964 27.492933 0 0 0
3.152067 -0.898140 8.731536 0 0 0
5.601480 -1.620571 14.029939 0 0 0
12.242310 3.855370 28.348081 0 0 0
0.895879 0.522138 1.986565 0 0 0
7.684413 4.046305 14.928827 0 0 0
7.684413 4.046305 14.928827 0 0 0
1.429949 0.038329 2.370485 0 0 0
-10.704445 2.960812 19.308060 0 0 0
-10.921023 3.215725 19.843623 0 0 0
-40.462624 -6.502518 74.193103 0 0 0
-12.126816 2.920732 22.615287 0 0 0
-38.611137 -5.810514 72.252396 0 0 0
-28.161828 18.918327 54.249584 0 0 0
-37.825499 -6.642131 73.710092 0 0 0
-90.855182 -34.449526 178.595140 0 0 0
-41.576432 -7.708831 82.488279 0 0 0
-37.607949 -5.271605 76.361588 0 0 0
-31.259828 -3.256240 65.595421 0 0 0
-61.092615 -27.046399 132.852723 0 0 0
-7.017482 3.900195 15.548319 0 0 0
-37.231415 -8.392586 83.613195 0 0 0
-37.231415 -8.392586 83.613195 0 0 0
-35.237998 -8.882872 80.350886 0 0 0
-32.144088 -3.043281 73.966155 0 0 0
-4.704642 2.885599 11.072435 0 0 0
-51.671229 -28.986092 126.234728 0 0 0
-29.694922 -7.634450 80.337564 0 0 0
-4.788364 4.111152 13.090044 0 0 0
-4.447179 4.076306 12.616986 0 0 0
-3.961462 4.164365 12.144347 0 0 0
-26.932258 -26.212891 83.725855 0 0 0
-4.227712 4.279104 13.273624 0 0 0
-2.592534 0.854620 8.357340 0 0 0
-4.051843 4.006289 13.335968 0 0 0
-27.655123 -8.551153 92.097213 0 0 0
-3.988061 4.759826 13.409092 0 0 0
-4.764870 3.163426 16.384001 0 0 0
-22.642561 -11.761788 78.068172 0 0 0
-22.767660 -12.004260 80.520812 0 0 0
-4.442669 2.891781 15.856779 0 0 0
-0.861235 0.183081 3.346618 0 0 0
-4.329487 2.797834 16.891658 0 0 0
-21.274005 -3.270780 84.954886 0 0 0
-19.788787 -5.253376 80.290631 0 0 0
-3.706269 3.478130 15.140339 0 0 0
-3.889747 2.783190 16.870991 0 0 0
-3.480990 2.699913 15.890098 0 0 0
-3.086460 3.440185 14.356028 0 0 0
-3.086460 3.440185 14.356028 0 0 0
-3.370945 2.725272 15.981296 0 0 0
-2.912117 3.256557 14.151777 0 0 0
-3.240287 2.776976 15.987557 0 0 0
-2.860523 3.445738 14.157607 0 0 0
-2.734175 2.853552 13.919646 0 0 0
-2.734175 2.853552 13.919646 0 0 0
-2.736938 3.042942 14.220899 0 0 0
-17.239983 -10.123891 92.444607 0 0 0
-2.392157 3.610445 13.631162 0 0 0
-2.049158 3.368487 13.240841 0 0 0
-1.962066 3.377977 13.135519 0 0 0
-2.548825 2.349790 17.442292 0 0 0
-2.542771 2.192891 17.504252 0 0 0
-2.040320 2.803774 14.097541 0 0 0
-0.271971 0.077633 2.037833 0 0 0
-2.433618 1.983231 17.452965 0 0 0
-2.020419 2.382394 14.463323 0 0 0
-1.803702 3.207931 13.082151 0 0 0
-1.803702 3.207931 13.082151 0 0 0
-1.785190 2.652760 14.034684 0 0 0
-1.777205 2.482934 14.059511 0 0 0
-1.750176 2.698149 13.893905 0 0 0
-1.689731 2.684517 14.028764 0 0 0
-2.087632 2.140898 17.345325 0 0 0
-0.514910 -0.236212 4.440312 0 0 0
-1.478546 3.665089 13.302734 0 0 0
-1.408037 3.640628 13.403370 0 0 0
-1.408037 3.640628 13.403370 0 0 0
-1.573801 1.955256 16.970299 0 0 0
-137.590636 216.854866 1574.630284 0 0 0
-1.416148 2.498793 16.633541 0 0 0
-1.416148 2.498793 16.633541 0 0 0
-1.307627 -0.346126 16.094137 0 0 0
-1.065103 3.193105 13.735453 0 0 0
-1.255743 2.585855 16.477570 0 0 0
-1.155742 2.755015 16.234348 0 0 0
-1.099627 -0.219094 15.752075 0 0 0
-1.099627 -0.219094 15.752075 0 0 0
-0.891663 3.250167 13.917817 0 0 0
-1.064575 2.096820 16.696813 0 0 0
-0.841282 2.983924 14.821032 0 0 0
-0.738222 0.502122 15.554487 0 0 0
-0.696296 2.461113 15.844729 0 0 0
-0.667951 -0.180783 15.386533 0 0 0
-0.397219 0.473545 15.233331 0 0 0
-0.340213 2.773696 15.588147 0 0 0
-0.364809 -1.654833 17.312902 0 0 0
-0.312954 -1.982906 17.573733 0 0 0
-0.317902 1.987306 17.313881 0 0 0
-0.301346 -1.544976 16.974540 0 0 0
-0.257336 3.007083 14.759978 0 0 0
-0.226227 1.001084 15.656964 0 0 0
-0.162110 1.817544 17.005913 0 0 0
-0.140347 -0.670312 15.239616 0 0 0
-0.122512 -0.399132 15.225342 0 0 0
-0.122512 -0.399132 15.225342 0 0 0
-0.103476 3.170228 14.761761 0 0 0
-0.075239 -1.214829 15.686408 0 0 0
-0.075239 -1.214829 15.686408 0 0 0
-0.078877 2.538619 15.772302 0 0 0
-0.049642 -0.840515 15.273407 0 0 0
-0.042350 -0.575639 17.551012 0 0 0
-0.032766 0.869010 15.504879 0 0 0
0.084646 0.835375 15.258922 0 0 0
0.101758 1.778280 16.371081 0 0 0
0.257722 2.674275 16.543225 0 0 0
0.257722 2.674275 16.543225 0 0 0
0.320047 2.454946 17.180179 0 0 0
0.400861 3.576068 15.192300 0 0 0
0.558965 2.259986 17.120490 0 0 0
0.587595 3.108651 15.861408 0 0 0
0.648990 2.978424 16.892083 0 0 0
0.604389 3.246491 15.462001 0 0 0
0.607881 -0.871201 15.447241 0 0 0
0.673158 -1.251028 16.168453 0 0 0
0.631026 -0.727776 15.264256 0 0 0
0.690508 -1.350799 16.460485 0 0 0
0.744013 1.937765 16.812819 0 0 0
0.787724 -1.286416 16.369417 0 0 0
0.811474 -1.127886 15.911701 0 0 0
0.946363 3.025288 16.241212 0 0 0
1.031690 3.027857 16.478840 0 0 0
0.989527 -0.551570 15.556744 0 0 0
1.021428 3.309700 15.878154 0 0 0
1.120732 2.992472 16.260687 0 0 0
1.128392 -1.721105 16.041622 0 0 0
1.128392 -1.721105 16.041622 0 0 0
1.143777 3.513693 15.967499 0 0 0
1.169139 -0.483338 15.734926 0 0 0
1.211376 2.894431 16.067230 0 0 0
1.237943 0.778842 15.986141 0 0 0
1.292673 2.368550 16.127081 0 0 0
1.308065 2.856137 16.121510 0 0 0
1.353102 2.515738 16.157302 0 0 0
1.351041 -1.837831 15.671721 0 0 0
1.445961 2.839874 16.383410 0 0 0
1.450608 3.173028 16.385330 0 0 0
1.434814 -1.118702 15.718260 0 0 0
1.501231 -0.976072 15.699328 0 0 0
1.640023 3.689249 16.619383 0 0 0
1.679546 3.732002 16.386139 0 0 0
1.816505 -1.081777 15.967300 0 0 0
2.387019 1.755749 19.427256 0 0 0
2.342261 0.476938 18.805864 0 0 0
4.959450 2.866262 37.247779 0 0 0
2.017664 1.051237 13.932958 0 0 0
6.822390 3.170191 36.436646 0 0 0
0.441700 -0.026885 1.249463 0 0 0
9.872442 3.404256 32.185813 0 0 0
2.248168 -1.231802 5.238934 0 0 0
14.526380 -2.857359 33.664124 0 0 0
2.503113 -0.566272 4.852447 0 0 0
0.520297 -0.132716 0.991121 0 0 0
6.637616 -0.139511 11.681811 0 0 0
-83.871431 -17.599462 155.099866 0 0 0
-28.298804 19.008152 54.504109 0 0 0
-87.694223 -54.742911 173.657219 0 0 0
-33.772862 -4.626221 71.413485 0 0 0
-30.349988 -2.801514 67.292484 0 0 0
-30.349988 -2.801514 67.292484 0 0 0
-29.541189 -3.025079 66.810728 0 0 0
-32.763289 -4.506941 76.016297 0 0 0
-22.013360 1.000361 51.009956 0 0 0
-33.365484 -17.596045 85.964196 0 0 0
-33.365484 -17.596045 85.964196 0 0 0
-36.063984 -8.821851 93.801817 0 0 0
-29.525305 -29.080376 92.620865 0 0 0
-1.357186 1.207349 4.250815 0 0 0
-20.994846 -1.714269 67.170927 0 0 0
-1.292129 1.185129 4.133039 0 0 0
-5.054486 3.463836 16.428608 0 0 0
-4.871686 3.080465 16.396837 0 0 0
-4.830058 2.941050 16.305297 0 0 0
-3.237941 4.096682 11.396701 0 0 0
-4.439802 2.890234 15.843592 0 0 0
-3.310322 4.824754 12.708415 0 0 0
-4.135125 2.829125 16.749106 0 0 0
-16.667893 -14.155190 68.726759 0 0 0
-18.437113 -7.186749 76.330965 0 0 0
-17.755906 1.385730 73.379879 0 0 0
-19.980809 -9.409827 83.495971 0 0 0
-20.555424 -30.827071 92.625064 0 0 0
-3.025931 3.340021 14.292475 0 0 0
-2.923553 3.069331 14.202923 0 0 0
-2.830227 3.116195 14.006096 0 0 0
-3.135211 2.522849 17.291662 0 0 0
-13.398801 -2.105261 78.654848 0 0 0
-2.248046 3.234463 13.387712 0 0 0
-2.248046 3.234463 13.387712 0 0 0
-0.470411 0.277463 2.999103 0 0 0
-2.134028 3.102181 13.898547 0 0 0
-1.911388 3.290723 13.022574 0 0 0
-2.041297 2.803987 14.102134 0 0 0
-2.479351 2.085526 17.396879 0 0 0
-2.479351 2.085526 17.396879 0 0 0
-1.977267 2.413353 14.089775 0 0 0
-1.932021 2.727152 13.978988 0 0 0
-1.776812 3.773513 13.002115 0 0 0
-0.427886 0.206798 3.250435 0 0 0
-7.832398 -5.823936 58.047576 0 0 0
-1.560370 2.691978 14.007206 0 0 0
-1.537720 2.553360 14.033682 0 0 0
-6.418275 -15.282740 64.942702 0 0 0
-1.392553 -0.414498 16.439004 0 0 0
-0.952870 3.308235 13.773242 0 0 0
-1.004893 2.243007 16.359496 0 0 0
0.005968 -0.097583 1.428053 0 0 0
-0.823486 3.533627 13.928312 0 0 0
-0.823486 3.533627 13.928312 0 0 0
-1.037117 -1.895336 18.351369 0 0 0
-0.811431 -0.431358 15.487241 0 0 0
-0.748495 2.158661 16.906499 0 0 0
-0.652419 2.604056 15.694778 0 0 0
-1.597394 -12.750177 54.407179 0 0 0
-0.426561 -0.026637 15.152586 0 0 0
-0.348083 3.566889 14.410583 0 0 0
-0.269679 1.855096 17.038428 0 0 0
-0.217611 -0.001207 15.148826 0 0 0
-0.086125 1.967578 16.828108 0 0 0
-0.018954 2.569056 16.441302 0 0 0
0.081134 -1.399098 16.113371 0 0 0
0.073664 0.852244 15.438794 0 0 0
0.092770 1.798171 16.533504 0 0 0
0.082682 2.782697 16.409060 0 0 0
0.161616 -1.776470 17.171421 0 0 0
0.186825 -1.907305 17.069925 0 0 0
0.231419 0.817539 15.430563 0 0 0
0.602963 3.034537 16.359128 0 0 0
0.634322 0.666389 15.567726 0 0 0
0.663753 3.503431 15.415928 0 0 0
0.787404 -1.293784 16.389534 0 0 0
0.806958 2.971998 16.696585 0 0 0
0.767040 3.459171 15.530586 0 0 0
0.851086 -1.712147 16.297164 0 0 0
0.899989 -1.046446 16.066022 0 0 0
0.965428 1.971328 16.513864 0 0 0
1.023267 2.754163 16.299512 0 0 0
1.023267 2.754163 16.299512 0 0 0
0.986671 0.007809 15.444431 0 0 0
1.100107 -0.698967 15.826784 0 0 0
1.113051 2.904862 16.180153 0 0 0
1.108259 0.575627 15.874333 0 0 0
1.144305 3.524122 16.021560 0 0 0
0.203819 0.380693 2.308051 0 0 0
1.168983 -0.481560 15.723462 0 0 0
1.190789 0.669404 16.058411 0 0 0
1.421482 3.010207 16.405551 0 0 0
1.446909 2.848034 16.419728 0 0 0
1.438643 -2.280740 16.170650 0 0 0
1.411167 -1.429779 15.607725 0 0 0
1.452634 -1.718696 15.613724 0 0 0
1.532855 -0.383122 15.823574 0 0 0
1.595027 -0.736191 15.702336 0 0 0
1.666172 3.666853 16.069290 0 0 0
1.652425 -1.774673 15.571206 0 0 0
1.653780 -1.542362 15.549662 0 0 0
1.770711 -1.619035 15.730718 0 0 0
2.044649 -1.784472 15.919205 0 0 0
4.950858 2.862689 37.167650 0 0 0
2.141113 3.385964 12.691951 0 0 0
2.949579 4.226993 15.936800 0 0 0
0.499355 -0.518446 2.589905 0 0 0
9.318998 -11.476519 46.437152 0 0 0
3.405168 4.051348 14.432698 0 0 0
17.333900 7.173113 58.193939 0 0 0
0.428190 -0.145135 1.214018 0 0 0
3.605187 -1.981886 9.402012 0 0 0
10.796846 2.408304 25.429004 0 0 0
5.035448 3.540157 10.430906 0 0 0
6.056289 3.977500 12.354810 0 0 0
1.502669 0.187997 2.304615 0 0 0
1.269987 -0.680166 2.295586 0 0 0
6.653831 -0.139889 11.715254 0 0 0
-42.332841 -6.826311 75.373285 0 0 0
-39.405759 -5.765972 70.823315 0 0 0
-38.232494 -6.322521 73.205566 0 0 0
-110.450375 -63.105991 218.801950 0 0 0
-29.944512 -2.090346 61.092898 0 0 0
-29.944512 -2.090346 61.092898 0 0 0
-34.829489 -5.352670 73.915638 0 0 0
-34.829489 -5.352670 73.915638 0 0 0
-33.845325 -4.949390 75.247447 0 0 0
-92.593293 -76.687698 207.994504 0 0 0
-92.593293 -76.687698 207.994504 0 0 0
-69.057872 -34.829510 156.091432 0 0 0
-7.277366 3.032683 16.784860 0 0 0
-35.606735 -9.415001 84.908995 0 0 0
-29.937639 -3.574687 72.266064 0 0 0
-37.284940 -27.471262 96.611663 0 0 0
-33.151985 -29.556897 87.744771 0 0 0
-33.315466 -28.711282 88.060784 0 0 0
-33.387860 -27.732229 88.145640 0 0 0
-32.816988 -31.269951 87.097630 0 0 0
-33.026966 -30.460786 87.533724 0 0 0
-31.862093 -27.580072 85.977292 0 0 0
-32.013680 -31.198208 86.829701 0 0 0
-29.676144 -16.037225 82.132288 0 0 0
-23.704749 -0.738069 66.143582 0 0 0
-23.128860 -1.811438 67.877797 0 0 0
-4.125380 3.897507 12.337313 0 0 0
-23.350818 -25.930709 74.615057 0 0 0
-3.206275 3.661530 10.811287 0 0 0
-17.595071 -0.780230 60.710789 0 0 0
-3.114189 4.033266 11.322821 0 0 0
-23.687005 -5.245152 88.296839 0 0 0
-19.530620 -4.518170 79.656591 0 0 0
-3.643872 3.100208 15.000288 0 0 0
-3.643872 3.100208 15.000288 0 0 0
-3.661205 2.756386 15.956521 0 0 0
-2.668462 3.090611 13.922386 0 0 0
-10.529381 -20.227667 58.371010 0 0 0
-3.075145 2.430182 17.438507 0 0 0
-0.437118 0.751198 2.862241 0 0 0
-10.379470 -3.189984 67.573444 0 0 0
-10.379470 -3.189984 67.573444 0 0 0
-1.995989 3.255148 13.086911 0 0 0
-0.420038 0.729648 4.338762 0 0 0
-1.341195 2.685387 16.463214 0 0 0
-0.965157 3.207411 13.852652 0 0 0
-1.141549 1.446188 18.404535 0 0 0
-0.993357 2.583652 15.984831 0 0 0
-0.837440 2.523401 15.876283 0 0 0
-0.723219 3.569389 14.052266 0 0 0
-0.761668 1.632249 16.455949 0 0 0
-0.779109 -2.025578 18.156603 0 0 0
-0.964606 -5.366411 23.861740 0 0 0
-1.815915 -17.645220 59.092844 0 0 0
-0.458454 -0.285427 15.225313 0 0 0
-0.426347 2.113797 17.471603 0 0 0
-0.339626 0.439245 15.238221 0 0 0
-0.008357 0.171783 2.877120 0 0 0
-0.171929 2.929472 15.331649 0 0 0
0.022417 2.804208 15.837577 0 0 0
0.225414 1.730035 16.378449 0 0 0
0.238376 2.828053 16.664865 0 0 0
0.304837 1.130667 15.971512 0 0 0
0.304195 3.684757 15.247059 0 0 0
0.428001 2.805822 16.757121 0 0 0
0.200074 1.581272 6.246750 0 0 0
0.581241 -1.672659 16.651887 0 0 0
0.643429 1.216701 16.044015 0 0 0
0.786478 2.309201 16.717368 0 0 0
0.099827 0.010293 1.441109 0 0 0
0.843275 -1.827476 16.254441 0 0 0
0.977908 2.208896 16.562515 0 0 0
0.961773 0.862009 15.941357 0 0 0
1.095101 -1.144171 16.015847 0 0 0
1.198132 3.143541 16.226820 0 0 0
1.226065 -0.626079 15.912915 0 0 0
1.281715 -0.503881 15.958924 0 0 0
1.335791 -0.819906 15.850913 0 0 0
1.535863 3.123724 16.572924 0 0 0
1.620380 2.374672 16.491792 0 0 0
1.738827 -0.700708 15.951504 0 0 0
1.738827 -0.700708 15.951504 0 0 0
1.781834 -1.183407 15.903432 0 0 0
1.781834 -1.183407 15.903432 0 0 0
1.942674 -1.221941 16.039957 0 0 0
9.605508 -3.499565 42.506263 0 0 0
0.662807 0.243281 2.125204 0 0 0
9.185552 -5.769342 38.988318 0 0 0
9.669656 -6.447660 40.704616 0 0 0
9.473466 -7.374970 38.235272 0 0 0
3.398115 3.853829 13.476458 0 0 0
9.554967 -11.932036 35.784430 0 0 0
10.235446 -1.192402 36.180639 0 0 0
11.040367 -7.309235 37.891592 0 0 0
11.102403 -4.578010 38.082863 0 0 0
11.929051 -7.421043 38.962556 0 0 0
11.637366 -3.509320 33.363355 0 0 0
1.316745 -0.415594 3.617847 0 0 0
14.948701 -11.445719 33.105337 0 0 0
13.600974 0.697883 29.667138 0 0 0
12.975371 1.680070 28.143896 0 0 0
14.992067 -6.551290 32.309633 0 0 0
12.731829 2.491794 26.962082 0 0 0
11.824587 2.950542 24.140976 0 0 0
11.824587 2.950542 24.140976 0 0 0
15.689559 -1.223956 31.234208 0 0 0
15.741879 -10.199398 31.198266 0 0 0
6.772572 -0.576286 11.979229 0 0 0
-35.057885 -22.914395 64.380653 0 0 0
-25.159105 17.454276 46.791355 0 0 0
-38.672710 -6.410528 72.305938 0 0 0
-34.301973 -3.569506 64.790272 0 0 0
-37.565834 -5.704736 72.732280 0 0 0
-35.784054 -4.589883 69.268613 0 0 0
-37.213864 -5.744622 73.936932 0 0 0
-34.743550 -4.520189 69.082225 0 0 0
-88.469895 -50.701185 175.661096 0 0 0
-24.470047 0.941974 48.773950 0 0 0
-24.470047 0.941974 48.773950 0 0 0
-32.657048 -3.095885 66.844988 0 0 0
-36.257897 -5.748338 75.342909 0 0 0
-29.724513 -3.855708 62.156981 0 0 0
-29.826889 -23.273223 62.909881 0 0 0
-32.304796 -2.937779 70.007088 0 0 0
-25.357247 -0.215031 59.148460 0 0 0
-25.357247 -0.215031 59.148460 0 0 0
-32.945192 -27.191698 89.260116 0 0 0
-31.164378 -27.405624 86.233321 0 0 0
-28.820876 -8.644065 79.883277 0 0 0
-30.025012 -31.308104 83.758973 0 0 0
-27.849279 -11.082102 78.344221 0 0 0
-27.849279 -11.082102 78.344221 0 0 0
-28.645503 -7.639799 80.484201 0 0 0
-25.704085 -8.837566 89.129766 0 0 0
-25.411468 -5.350846 87.887982 0 0 0
-5.037555 3.287035 17.442713 0 0 0
-25.064069 -10.637750 87.798608 0 0 0
-23.033468 -11.040787 83.286422 0 0 0
-23.336052 -3.069989 84.827363 0 0 0
-2.037365 0.854798 8.403536 0 0 0
-2.885955 4.532812 12.090675 0 0 0
-18.263997 -24.933158 79.646922 0 0 0
-16.170482 -8.782937 87.519723 0 0 0
-10.886720 0.806201 60.860208 0 0 0
-15.266150 -9.689025 92.137269 0 0 0
-13.067791 -4.713902 82.857594 0 0 0
-12.848729 -5.639948 83.231762 0 0 0
-7.187517 -22.001972 64.394803 0 0 0
-6.757752 -23.459495 61.770578 0 0 0
-6.786577 -22.200009 61.702499 0 0 0
-1.315308 2.720408 14.592179 0 0 0
-1.217977 2.427413 16.259862 0 0 0
-0.945174 3.540628 13.780553 0 0 0
-1.023580 2.372328 16.132189 0 0 0
-1.037689 1.857862 19.033523 0 0 0
-0.896952 2.123490 16.753544 0 0 0
-0.794261 -0.676970 15.571294 0 0 0
-0.794261 -0.676970 15.571294 0 0 0
-0.504726 -0.713831 15.424838 0 0 0
-0.494624 3.161524 14.430727 0 0 0
-0.434085 3.667073 14.357491 0 0 0
-0.432803 -0.449989 15.233482 0 0 0
-0.390693 0.801533 15.515753 0 0 0
-0.299818 0.656899 15.399666 0 0 0
-0.293348 2.466548 15.748891 0 0 0
-0.270087 2.642938 15.743721 0 0 0
0.132646 -1.041561 15.458143 0 0 0
0.342170 2.696146 16.896855 0 0 0
0.342170 2.696146 16.896855 0 0 0
0.328221 3.303557 15.185681 0 0 0
0.529780 2.525483 16.870953 0 0 0
0.519479 -0.530550 15.190873 0 0 0
0.663145 -1.837684 16.489026 0 0 0
2.480810 -21.440460 57.542338 0 0 0
2.271469 -18.099909 53.459421 0 0 0
0.766795 3.084418 15.942550 0 0 0
0.795196 3.634785 15.695763 0 0 0
0.797143 -0.782247 15.387573 0 0 0
0.896517 3.188858 15.752115 0 0 0
0.896517 3.188858 15.752115 0 0 0
0.975438 4.054672 15.938730 0 0 0
1.002765 3.378602 15.848080 0 0 0
1.152874 0.266143 15.694419 0 0 0
1.303281 3.586165 16.098034 0 0 0
1.334682 1.108235 15.931249 0 0 0
1.430722 2.400989 16.242308 0 0 0
4.625411 -13.307868 47.194368 0 0 0
1.780092 -0.533240 16.946403 0 0 0
5.259050 -13.536699 48.014028 0 0 0
5.156146 -16.913236 45.482102 0 0 0
2.237769 1.847622 17.424807 0 0 0
7.070570 -7.461157 50.626311 0 0 0
5.726517 -7.808658 40.172523 0 0 0
7.762416 -14.222601 48.031678 0 0 0
9.091379 -8.111361 38.534828 0 0 0
10.215294 -13.935762 42.781700 0 0 0
10.332467 -11.451111 41.590297 0 0 0
8.792051 -6.271074 32.933964 0 0 0
11.258976 -15.254615 41.417712 0 0 0
10.976185 -1.825437 37.215635 0 0 0
13.451724 -12.775943 44.569143 0 0 0
10.126004 1.830420 32.867437 0 0 0
10.653573 0.306538 33.686463 0 0 0
11.041481 0.799529 33.591936 0 0 0
13.232099 -4.719389 38.232810 0 0 0
12.817662 -13.162300 35.328711 0 0 0
13.131605 -11.569157 35.935876 0 0 0
13.306631 -1.671982 35.791500 0 0 0
12.300475 -9.597391 32.908776 0 0 0
12.541372 -2.349831 33.286101 0 0 0
13.276129 -6.974093 34.518308 0 0 0
13.473570 -2.228137 33.898886 0 0 0
3.525579 1.356087 8.392136 0 0 0
13.608474 -3.122783 31.970843 0 0 0
11.287424 3.370836 25.697704 0 0 0
13.631240 -2.058043 30.815859 0 0 0
12.171691 3.367378 27.164156 0 0 0
13.985351 -3.060528 30.745545 0 0 0
12.458127 2.944750 26.318736 0 0 0
14.112073 -10.513616 29.741844 0 0 0
15.542569 -3.475313 31.973389 0 0 0
13.640510 1.133627 27.983560 0 0 0
11.964122 2.988813 24.451482 0 0 0
11.964122 2.988813 24.451482 0 0 0
13.472500 1.163204 27.083025 0 0 0
15.428731 -9.105166 30.286074 0 0 0
-15.476304 8.876777 30.976168 0 0 0
-32.479274 -24.210702 68.260621 0 0 0
-39.065794 -26.965487 82.395876 0 0 0
-35.904703 -26.089379 76.715905 0 0 0
-61.557949 -29.703870 132.992005 0 0 0
-35.457088 -26.507192 78.976281 0 0 0
-33.990995 -27.782277 81.080962 0 0 0
-46.388433 -18.477520 114.832900 0 0 0
-36.879904 -25.620630 98.203917 0 0 0
-36.008314 -21.159842 96.516709 0 0 0
-37.870823 -29.932218 102.650565 0 0 0
-33.582001 -20.707644 93.294518 0 0 0
-28.620941 -30.833423 82.700925 0 0 0
-19.610556 -0.926501 59.048666 0 0 0
-26.616846 -14.932659 87.606975 0 0 0
-19.771844 -8.192492 65.846614 0 0 0
-24.597367 -6.050337 88.256479 0 0 0
-23.762759 -11.377918 85.812333 0 0 0
-4.357222 3.477925 15.828501 0 0 0
-22.728893 -6.983161 84.439047 0 0 0
-21.967460 -12.407566 81.827483 0 0 0
-4.254818 2.965477 16.083811 0 0 0
-2.178038 1.868960 8.529780 0 0 0
-3.145740 3.270920 14.193696 0 0 0
-3.145740 3.270920 14.193696 0 0 0
-17.922258 -5.864365 85.042628 0 0 0
-16.150091 -4.562688 82.504167 0 0 0
-14.269034 -4.312673 83.824116 0 0 0
-5.689124 -12.539675 63.605737 0 0 0
-1.454181 2.034309 16.607939 0 0 0
-1.081659 3.362459 13.563895 0 0 0
-1.266567 2.193285 16.436111 0 0 0
-1.252603 1.984516 16.754574 0 0 0
-1.347268 1.961973 18.445497 0 0 0
-1.077224 0.074469 15.758117 0 0 0
-0.836778 3.674076 13.946156 0 0 0
-0.676574 3.853490 11.406127 0 0 0
-0.519609 2.865969 15.730911 0 0 0
-0.384513 0.802627 15.445807 0 0 0
-1.351893 -20.827227 56.544212 0 0 0
-1.341304 -16.015753 59.053607 0 0 0
-1.152386 -9.846401 54.397989 0 0 0
-0.976782 -18.811576 55.190568 0 0 0
-0.006461 0.639132 15.335575 0 0 0
0.199672 -0.777613 15.250597 0 0 0
0.444221 0.119826 15.170252 0 0 0
0.444221 0.119826 15.170252 0 0 0
0.604460 0.298977 15.200580 0 0 0
0.604460 0.298977 15.200580 0 0 0
0.778522 0.870067 15.401954 0 0 0
1.127417 -0.926900 16.014091 0 0 0
1.196706 2.258017 15.932856 0 0 0
4.277366 -16.956504 52.117573 0 0 0
1.307038 -1.204119 15.955951 0 0 0
0.870863 3.833720 10.732685 0 0 0
1.509121 1.297813 16.201805 0 0 0
4.673206 -13.480430 47.816519 0 0 0
5.115110 -13.787152 51.660416 0 0 0
5.084522 -14.852913 48.176942 0 0 0
5.898707 -16.931836 48.122930 0 0 0
0.329188 0.183125 1.646484 0 0 0
1.979763 -1.668026 15.826517 0 0 0
6.966712 -9.033494 50.768410 0 0 0
8.217756 -4.128361 44.259105 0 0 0
7.697184 -4.369643 39.993928 0 0 0
8.767728 -8.520817 45.036185 0 0 0
8.716748 -15.083238 43.865136 0 0 0
8.374445 -2.804142 39.531698 0 0 0
10.395731 -11.538699 41.870951 0 0 0
9.632471 -12.141169 38.537322 0 0 0
10.593146 -7.725563 34.828406 0 0 0
10.420897 1.213161 32.268839 0 0 0
13.307791 -10.467426 40.127394 0 0 0
13.348100 -4.438688 33.553627 0 0 0
12.768043 0.444499 31.802489 0 0 0
13.489520 -5.930014 33.450458 0 0 0
12.680165 -5.793112 30.252115 0 0 0
0.489572 -0.224743 1.161232 0 0 0
13.467304 -6.315578 31.183640 0 0 0
14.582722 -9.742890 33.243740 0 0 0
15.123293 -2.538352 33.614992 0 0 0
14.475093 -11.236709 30.775834 0 0 0
11.757950 3.148985 24.996734 0 0 0
13.365589 1.910422 27.973691 0 0 0
13.465238 1.714130 27.243661 0 0 0
6.081108 -0.929583 10.931594 0 0 0
-41.233689 -1.929289 73.342874 0 0 0
-38.443693 -24.217646 70.532869 0 0 0
-25.972342 17.298557 47.806503 0 0 0
-25.972342 17.298557 47.806503 0 0 0
-15.741355 9.619984 31.608963 0 0 0
-49.846408 -29.342151 104.309625 0 0 0
-59.768615 -31.008204 132.589366 0 0 0
-63.067627 -29.792977 140.059294 0 0 0
-51.223955 -19.359242 114.714799 0 0 0
-42.924630 4.884781 107.832205 0 0 0
-33.429352 -16.542524 89.459555 0 0 0
-34.259108 -6.617807 91.497292 0 0 0
-34.848977 -26.600967 96.252687 0 0 0
-29.399959 -4.574174 82.175055 0 0 0
-29.723397 -27.026620 85.612429 0 0 0
-29.723397 -27.026620 85.612429 0 0 0
-27.236455 -17.515060 80.337941 0 0 0
-28.474438 -27.562136 85.918162 0 0 0
-22.930526 -17.134624 71.684885 0 0 0
-30.938804 -22.117111 100.532308 0 0 0
-4.896658 3.219051 16.355346 0 0 0
-21.365204 -22.050560 73.948343 0 0 0
-21.460143 -15.817419 79.416766 0 0 0
-2.466645 3.659051 10.770478 0 0 0
-19.119760 -4.999382 85.228139 0 0 0
-16.195501 -0.127888 72.671172 0 0 0
-17.597031 -26.540710 81.610296 0 0 0
-14.863428 -0.889458 72.408431 0 0 0
-2.671770 3.473785 14.107113 0 0 0
-11.492931 -22.440561 66.936237 0 0 0
-14.990776 -8.370303 88.851422 0 0 0
-10.858260 -13.547176 66.897868 0 0 0
-2.867074 2.194926 17.531712 0 0 0
-2.029331 3.484941 13.221824 0 0 0
-2.029331 3.484941 13.221824 0 0 0
-1.345586 0.004590 16.195072 0 0 0
-1.466683 1.732658 19.057709 0 0 0
-3.854798 -16.603333 59.854903 0 0 0
-0.866894 2.753115 15.945859 0 0 0
-2.518872 -13.790579 63.731169 0 0 0
-2.056641 -20.510658 59.796077 0 0 0
-2.056641 -20.510658 59.796077 0 0 0
-0.570398 2.202321 16.786985 0 0 0
-0.178748 3.930165 11.073708 0 0 0
-0.135927 -0.384009 15.130580 0 0 0
-0.135927 -0.384009 15.130580 0 0 0
-0.063954 0.311850 15.175108 0 0 0
0.019225 1.938004 16.672759 0 0 0
0.273233 -16.457845 58.222012 0 0 0
0.643112 -15.437352 49.441850 0 0 0
0.228624 -0.438212 15.126258 0 0 0
1.753584 -14.520125 49.868599 0 0 0
4.131029 -16.905155 45.867187 0 0 0
1.474176 3.558889 16.465399 0 0 0
5.547219 -14.570385 46.575498 0 0 0
5.789586 -12.687580 44.722468 0 0 0
2.281049 -1.495878 13.964869 0 0 0
6.731012 1.841179 36.176335 0 0 0
7.609268 1.225242 35.781592 0 0 0
9.605447 -7.441958 41.878016 0 0 0
9.950020 -10.143651 40.515291 0 0 0
10.120228 -11.851452 40.781836 0 0 0
10.330840 -10.662983 39.379185 0 0 0
11.296792 -5.912117 38.330079 0 0 0
0.568757 0.464597 1.906327 0 0 0
5.045457 3.743382 16.502233 0 0 0
11.459601 -3.746454 36.252143 0 0 0
10.927991 -1.858192 33.580491 0 0 0
12.588779 -10.410546 33.336445 0 0 0
8.382368 3.562816 22.252593 0 0 0
8.164207 3.344748 20.059812 0 0 0
15.265289 -9.844421 30.935972 0 0 0
5.262338 -1.149630 10.516370 0 0 0
14.507732 1.141845 28.889855 0 0 0
-64.702656 -15.743962 125.793221 0 0 0
-28.447378 0.234694 55.846572 0 0 0
-57.046655 6.859634 112.565674 0 0 0
-31.817199 -23.344856 64.246553 0 0 0
-44.360090 -14.348132 94.478914 0 0 0
-40.699063 -9.223548 88.478100 0 0 0
-40.699063 -9.223548 88.478100 0 0 0
-33.263422 -25.718412 81.175773 0 0 0
-26.648459 -16.499566 80.960362 0 0 0
-30.450745 -22.682760 94.205422 0 0 0
-23.583404 -24.202723 81.275385 0 0 0
-20.758765 -23.607669 74.831991 0 0 0
-20.758765 -23.607669 74.831991 0 0 0
-17.168797 -0.123894 66.189266 0 0 0
-19.276356 -8.406857 92.647011 0 0 0
-2.915616 3.548298 14.101537 0 0 0
-2.869286 3.243810 14.121645 0 0 0
-2.869286 3.243810 14.121645 0 0 0
-15.454027 -24.744355 77.733768 0 0 0
-11.958439 -14.515554 71.437042 0 0 0
-2.049286 2.996059 14.293342 0 0 0
-1.948886 2.399575 16.930009 0 0 0
-1.521796 2.472527 13.138930 0 0 0
-1.482898 2.424098 16.481809 0 0 0
-1.276168 0.291932 16.380597 0 0 0
-3.544916 -12.831576 59.885964 0 0 0
-3.544916 -12.831576 59.885964 0 0 0
-0.074096 -0.329498 2.767602 0 0 0
-2.998628 -19.717300 59.507316 0 0 0
-0.077430 -0.439442 3.252151 0 0 0
-0.705307 -0.231929 15.366175 0 0 0
-0.940747 -11.070594 53.577614 0 0 0
-0.169684 -14.282709 56.013928 0 0 0
0.694632 -13.232766 55.449117 0 0 0
0.552432 2.411495 16.951538 0 0 0
2.453131 -10.893834 58.931012 0 0 0
3.111994 -13.230694 53.431054 0 0 0
2.912886 -8.287404 49.991147 0 0 0
0.933400 3.514762 15.690495 0 0 0
3.632374 -15.265364 52.358782 0 0 0
1.299025 -1.701706 15.784422 0 0 0
6.062131 -13.860926 46.106004 0 0 0
7.351191 -14.435108 45.770561 0 0 0
9.855006 -10.278325 48.548372 0 0 0
7.158212 1.810587 31.002918 0 0 0
9.249392 -4.537674 39.373242 0 0 0
5.247450 2.110788 18.837311 0 0 0
10.337467 -2.425198 31.896341 0 0 0
11.758306 1.970986 30.949256 0 0 0
9.932098 3.485541 25.810430 0 0 0
14.575110 -1.725270 31.720769 0 0 0
14.149375 -7.245220 30.489504 0 0 0
-33.751515 -1.091432 64.210905 0 0 0
-33.751515 -1.091432 64.210905 0 0 0
-33.498429 -22.504556 65.151613 0 0 0
-64.044478 -15.630567 124.535344 0 0 0
-43.222465 -14.051858 92.113376 0 0 0
-40.179336 -9.122608 87.376594 0 0 0
-40.179336 -9.122608 87.376594 0 0 0
-47.070662 -41.875789 115.301433 0 0 0
-36.304798 -28.107242 88.381348 0 0 0
-38.368597 -12.513575 99.680775 0 0 0
-24.434618 -0.559898 64.625964 0 0 0
-24.434618 -0.559898 64.625964 0 0 0
-19.821572 -1.802728 54.843303 0 0 0
-28.723819 -27.456066 87.992808 0 0 0
-29.426101 -16.599779 91.786666 0 0 0
-2.934373 2.859212 14.308332 0 0 0
-15.413604 -6.489884 85.914506 0 0 0
-1.972960 2.921760 13.936757 0 0 0
-2.340546 1.685346 17.623659 0 0 0
-1.592700 3.196041 13.610634 0 0 0
-1.592700 3.196041 13.610634 0 0 0
-1.440607 2.960041 14.194206 0 0 0
-1.827559 1.661181 18.881550 0 0 0
-5.252436 -10.130233 66.571080 0 0 0
-0.496485 2.983213 14.797099 0 0 0
-1.537685 -17.511239 55.333544 0 0 0
-0.011061 -1.688322 16.861502 0 0 0
0.311476 3.499255 14.901512 0 0 0
1.523958 -17.660861 52.228084 0 0 0
0.517822 3.199297 15.440230 0 0 0
2.107114 -13.951414 53.078013 0 0 0
2.700346 -18.044832 50.371318 0 0 0
2.661598 -15.540978 48.747960 0 0 0
0.864919 0.672135 15.784106 0 0 0
0.933440 3.512265 15.674265 0 0 0
1.229236 3.881631 11.755479 0 0 0
6.007175 -10.898970 46.172315 0 0 0
2.098935 3.900539 15.909098 0 0 0
8.655233 -16.548616 44.570870 0 0 0
2.914663 3.830410 12.926920 0 0 0
11.210355 -10.289077 39.984928 0 0 0
6.117241 4.276974 13.944864 0 0 0
14.646674 -1.729182 31.887978 0 0 0
6.379547 4.014371 12.165343 0 0 0
-49.734119 -13.441926 104.273056 0 0 0
-2.936296 3.422148 14.172827 0 0 0
-2.562178 3.207156 14.781735 0 0 0
-2.478524 2.167175 17.376302 0 0 0
-2.478524 2.167175 17.376302 0 0 0
-1.644276 3.264920 13.879673 0 0 0
-1.644276 3.264920 13.879673 0 0 0
-1.033327 2.921597 15.076965 0 0 0
0.075226 2.370250 17.334878 0 0 0
2.968389 -10.455969 53.289112 0 0 0
5.475803 -11.887902 42.969262 0 0 0
3.112727 2.985618 18.259334 0 0 0
4.916444 7.735428 26.367025 0 0 0
1.959061 2.138388 10.422143 0 0 0
10.447357 3.419783 38.215415 0 0 0
8.077947 3.731803 19.826451 0 0 0
6.088711 3.951274 12.264633 0 0 0
-75.684541 -47.099033 151.906795 0 0 0
-26.502769 -21.983420 62.701481 0 0 0
-33.135150 -3.518529 84.710364 0 0 0
-33.135150 -3.518529 84.710364 0 0 0
-22.142230 -25.178036 72.658592 0 0 0
-22.142230 -25.178036 72.658592 0 0 0
-8.291652 -15.710534 66.864241 0 0 0
-1.613292 3.583274 13.097090 0 0 0
-1.016372 -1.594317 17.456946 0 0 0
-0.365550 3.545491 14.749202 0 0 0
-0.100323 0.484497 15.397879 0 0 0
0.835005 -11.480550 58.790988 0 0 0
2.898892 2.696063 16.419594 0 0 0
10.354025 -8.520035 41.358012 0 0 0
10.026810 2.749630 25.395368 0 0 0
-19.524314 -0.941182 63.366964 0 0 0
-4.300489 3.229128 15.796800 0 0 0
-4.300489 3.229128 15.796800 0 0 0
-6.687543 -13.191622 55.355929 0 0 0
0.096857 -0.935944 16.219595 0 0 0
0.096857 -0.935944 16.219595 0 0 0
9.282878 -13.783274 41.123687 0 0 0
6.943236 3.242877 13.407755 0 0 0
-97.327695 -35.057666 196.488220 0 0 0
-18.025924 -12.886643 72.767797 0 0 0
-3.379895 -17.106339 62.275918 0 0 0
4.913430 -13.543568 54.122727 0 0 0
-1.464862 0.609624 5.701123 0 0 0
-2.189634 0.980629 18.472702 0 0 0
1.348819 -1.117403 16.017779 0 0 0
10.742749 -11.959956 38.895029 0 0 0
10.742749 -11.959956 38.895029 0 0 0
-112.146623 -52.980252 290.744461 0 0 0
-4.302570 2.708796 11.094510 0 0 0
-25.003399 -5.465618 76.855537 0 0 0
-25.003399 -5.465618 76.855537 0 0 0
-3.558037 0.763229 20.781453 0 0 0
-2.252379 3.402477 15.219678 0 0 0
-2.252379 3.402477 15.219678 0 0 0
0.000000 0.000000 0.000000 0 0 0
